<svg width="16" height="16" viewBox="0 0 16 16" fill="none" xmlns="http://www.w3.org/2000/svg">
<path d="M11.5955 0H4.44198C2.0134 0 0.0371094 1.937 0.0371094 4.31729V11.3277C0.0371094 13.7089 2.0134 15.645 4.44198 15.645H11.5946C14.0241 15.645 16.0004 13.708 16.0004 11.3277V4.31729C16.0004 1.937 14.0241 0 11.5955 0ZM14.5841 11.3286C14.5841 12.9445 13.2432 14.2577 11.5946 14.2577H4.44198C2.79429 14.2577 1.45347 12.9435 1.45347 11.3286V4.31729C1.45347 2.70236 2.79429 1.3882 4.44198 1.3882H11.5946C13.2423 1.3882 14.5841 2.70236 14.5841 4.31729V11.3286Z" fill="#C9C9C9"/>
<path d="M8.01878 3.79181C5.75077 3.79181 3.90576 5.60017 3.90576 7.82313C3.90576 10.0461 5.75077 11.8545 8.01878 11.8545C10.2868 11.8545 12.1318 10.0461 12.1318 7.82313C12.1318 5.60017 10.2868 3.79181 8.01878 3.79181ZM8.01878 10.4663C6.53164 10.4663 5.32209 9.28074 5.32209 7.82313C5.32209 6.36553 6.53164 5.18001 8.01878 5.18001C9.50593 5.18001 10.7155 6.36553 10.7155 7.82313C10.7155 9.28074 9.50593 10.4663 8.01878 10.4663Z" fill="#C9C9C9"/>
<path d="M12.3052 2.61362C12.0324 2.61362 11.7642 2.72186 11.5716 2.91152C11.378 3.10026 11.2666 3.36301 11.2666 3.63131C11.2666 3.89868 11.378 4.16143 11.5716 4.35109C11.7642 4.53983 12.0324 4.649 12.3052 4.649C12.579 4.649 12.8463 4.53983 13.0398 4.35109C13.2334 4.16143 13.3439 3.89868 13.3439 3.63131C13.3439 3.36301 13.2334 3.10026 13.0398 2.91152C12.8472 2.72186 12.579 2.61362 12.3052 2.61362Z" fill="#C9C9C9"/>
</svg>
