<svg width="16" height="22" viewBox="0 0 16 22" fill="none" xmlns="http://www.w3.org/2000/svg">
<path d="M7.71721 0.00441333C12.2654 -0.140316 16 3.2933 16 7.54882C16 12.3787 11.0847 15.8839 8.32983 20.9247C8.18987 21.1805 7.79919 21.1809 7.65879 20.9251C5.16645 16.3892 0.906897 13.3478 0.117249 8.97802C-0.700302 4.45647 2.85594 0.15901 7.71721 0.00441333ZM7.99453 11.503C10.3103 11.503 12.1878 9.7325 12.1878 7.54882C12.1878 5.36514 10.3103 3.59468 7.99453 3.59468C5.67879 3.59468 3.80125 5.36514 3.80125 7.54882C3.80125 9.7325 5.67879 11.503 7.99453 11.503Z" fill="#0066FF"/>
</svg>
