<svg width="16" height="16" viewBox="0 0 16 16" fill="none" xmlns="http://www.w3.org/2000/svg">
<path d="M8 0C3.58875 0 0 3.44467 0 7.67881C0 11.913 3.58875 15.3576 8 15.3576C12.4113 15.3576 16 11.913 16 7.67881C16 3.44467 12.4113 0 8 0ZM11.8047 11.6505C11.6747 11.7753 11.5041 11.838 11.3334 11.838C11.1628 11.838 10.9919 11.7753 10.8622 11.6505L7.52875 8.45119C7.40344 8.33151 7.33344 8.16894 7.33344 7.99887V3.83941C7.33344 3.48546 7.63188 3.19961 8 3.19961C8.36812 3.19961 8.66656 3.48576 8.66656 3.83941V7.73401L11.8047 10.7458C12.0653 10.996 12.0653 11.4003 11.8047 11.6505Z" fill="#0066FF"/>
</svg>
