<svg width="17" height="17" viewBox="0 0 17 17" fill="none" xmlns="http://www.w3.org/2000/svg">
<path d="M16.3788 9.84172C16.8981 5.57621 16.1291 2.88347 14.7417 1.66566L14.7424 1.66499C12.5033 -0.415347 4.9408 -0.723202 2.26192 1.75821C1.05887 2.97172 0.635069 4.75316 0.588471 6.95824C0.541873 9.16431 0.486772 13.2965 4.43502 14.4174H4.43876L4.43502 16.1295C4.43502 16.1295 4.40815 16.8232 4.86257 16.9625C5.38195 17.1267 5.61732 16.8046 7.23329 14.9223C9.93563 15.1509 12.0108 14.6271 12.2465 14.5508C12.7921 14.3723 15.8794 13.9739 16.3788 9.84172ZM7.49927 13.7178C7.49927 13.7178 5.78909 15.7978 5.25712 16.3379C5.08297 16.5133 4.89216 16.4971 4.89488 16.1488C4.89488 15.9202 4.90781 13.3067 4.90781 13.3067C1.56057 12.3712 1.75784 8.85247 1.79424 7.01165C1.83063 5.17016 2.17587 3.66207 3.19456 2.64661C5.54487 0.497269 12.1747 0.977961 13.8642 2.52619C15.9291 4.31161 15.1941 9.35638 15.1985 9.52822C14.774 12.9777 12.272 13.1963 11.8121 13.3456C11.6159 13.4093 9.79074 13.8671 7.49927 13.7178Z" fill="#C9C9C9"/>
<path d="M8.44576 3.05029C8.16652 3.05029 8.16652 3.47492 8.44576 3.47857C10.6131 3.49482 12.398 4.96841 12.4178 7.67109C12.4178 7.95639 12.846 7.95274 12.8423 7.66744H12.8416C12.8181 4.7551 10.8692 3.06655 8.44576 3.05029Z" fill="#C9C9C9"/>
<path d="M11.2969 7.22299C11.2905 7.50464 11.7177 7.51824 11.7214 7.23294C11.7571 5.62699 10.7418 4.30434 8.83406 4.16501C8.55481 4.14511 8.52556 4.57338 8.80447 4.59329C10.4589 4.7157 11.3303 5.81674 11.2969 7.22299Z" fill="#C9C9C9"/>
<path d="M10.8393 9.04954C10.4808 8.84718 10.1158 8.97324 9.96482 9.17195L9.64918 9.57037C9.48898 9.77273 9.18899 9.74586 9.18899 9.74586C7.00197 9.1819 6.41729 6.94962 6.41729 6.94962C6.41729 6.94962 6.39042 6.64741 6.59075 6.48552L6.98564 6.16705C7.18292 6.01412 7.30774 5.64622 7.10673 5.28462C6.56966 4.3385 6.20913 4.01207 6.02546 3.7616C5.83261 3.52607 5.54214 3.47299 5.24044 3.63223H5.23398C4.60645 3.99017 3.91905 4.66062 4.13911 5.35064C4.51427 6.07814 5.20371 8.39734 7.4006 10.1496C8.43323 10.9783 10.0672 11.8275 10.7607 12.0236L10.7672 12.0335C11.4508 12.2558 12.1155 11.5595 12.4702 10.9288V10.9239C12.6277 10.619 12.5753 10.3301 12.3454 10.1413C11.9379 9.75316 11.3226 9.32488 10.8393 9.04954Z" fill="#C9C9C9"/>
<path d="M9.13351 5.74471C9.83079 5.78418 10.1689 6.13948 10.2053 6.86931C10.2182 7.1546 10.6427 7.1347 10.6298 6.8494C10.5832 5.89698 10.074 5.36619 9.15664 5.31643C8.87739 5.30017 8.8512 5.72845 9.13351 5.74471Z" fill="#C9C9C9"/>
</svg>
