<svg width="17" height="11" viewBox="0 0 17 11" fill="none" xmlns="http://www.w3.org/2000/svg">
<path d="M16.6286 9.03527C16.5856 8.96178 16.3203 8.37065 15.0431 7.15581C13.706 5.88377 13.8856 6.09051 15.4961 3.89088C16.4771 2.55143 16.869 1.73344 16.7465 1.38387C16.6299 1.05061 15.9084 1.13848 15.9084 1.13848L13.5096 1.15286C13.5096 1.15286 13.3319 1.12825 13.1993 1.20909C13.0706 1.28897 12.9879 1.47302 12.9879 1.47302C12.9879 1.47302 12.6078 2.50989 12.1008 3.39114C11.0322 5.25111 10.6041 5.3492 10.4295 5.23354C10.0235 4.96449 10.1252 4.15162 10.1252 3.57519C10.1252 1.77242 10.3915 1.02089 9.60539 0.826618C9.34409 0.762074 9.15233 0.719257 8.48474 0.712228C7.6285 0.702962 6.90323 0.715423 6.4932 0.920879C6.21974 1.05796 6.00926 1.36374 6.13804 1.381C6.29675 1.40241 6.65596 1.48005 6.84648 1.7459C7.09281 2.08843 7.08408 2.85945 7.08408 2.85945C7.08408 2.85945 7.22564 4.98111 6.75387 5.24504C6.42959 5.42589 5.98556 5.05684 5.03267 3.36878C4.54468 2.50477 4.1755 1.54875 4.1755 1.54875C4.1755 1.54875 4.10471 1.37077 3.97781 1.27587C3.82408 1.1602 3.60862 1.12346 3.60862 1.12346L1.32772 1.13784C1.32772 1.13784 0.985348 1.14806 0.859688 1.30048C0.748059 1.4366 0.850645 1.7165 0.850645 1.7165C0.850645 1.7165 2.63639 5.9972 4.65818 8.15593C6.51315 10.1344 8.61851 10.0047 8.61851 10.0047H9.57234C9.57234 10.0047 9.86076 9.97212 10.0073 9.80948C10.143 9.66026 10.138 9.38004 10.138 9.38004C10.138 9.38004 10.1189 8.06806 10.7136 7.87507C11.2992 7.68495 12.0516 9.14295 12.8489 9.70436C13.4516 10.1287 13.9096 10.0357 13.9096 10.0357L16.0418 10.005C16.0418 10.0044 17.1575 9.93378 16.6286 9.03527Z" fill="#C9C9C9"/>
</svg>
